<svg width="12" height="12" viewBox="0 0 12 12" fill="none" xmlns="http://www.w3.org/2000/svg">
<path d="M0.629464 0.629462C1.04911 0.209819 1.55469 -1.90735e-06 2.14621 -1.90735e-06C2.73772 -1.90735e-06 3.24107 0.209819 3.65625 0.629462L5.14955 2.13616L5.84598 1.43973C5.89062 1.39509 5.94196 1.37277 6 1.37277C6.05804 1.37277 6.10938 1.39509 6.15402 1.43973L7.56027 2.84598C7.60491 2.89062 7.62723 2.94196 7.62723 3C7.62723 3.05803 7.60491 3.10937 7.56027 3.15402L6.85714 3.85714L10.8951 7.89509C11.0603 8.06027 11.1429 8.26116 11.1429 8.49777V9.85714L12 11.5714L11.5714 12L9.85714 11.1429H8.49777C8.26116 11.1429 8.06027 11.0603 7.89509 10.8951L3.85714 6.85714L3.15402 7.56027C3.10938 7.60491 3.05804 7.62723 3 7.62723C2.94196 7.62723 2.89062 7.60491 2.84598 7.56027L1.43973 6.15402C1.39509 6.10937 1.37277 6.05803 1.37277 6C1.37277 5.94196 1.39509 5.89062 1.43973 5.84598L2.13616 5.14955L0.629464 3.65625C0.209821 3.24107 0 2.73772 0 2.1462C0 1.55469 0.209821 1.04911 0.629464 0.629462ZM9.85714 8.57143L6 4.71428L4.71429 6L8.57143 9.85714H9.85714V8.57143Z" fill="white"/>
</svg>
