<svg width="171" height="35" viewBox="0 0 171 35" fill="none" xmlns="http://www.w3.org/2000/svg">
<rect y="3" width="32" height="32" rx="10" fill="black"/>
<path d="M22.8725 9.99376L23.0588 9.80751C23.1989 9.66741 23.3654 9.55629 23.5485 9.4805C23.7316 9.40471 23.9279 9.36573 24.1261 9.36578C24.3243 9.36584 24.5205 9.40494 24.7036 9.48084C24.8867 9.55674 25.053 9.66795 25.1931 9.80814C25.3332 9.94833 25.4444 10.1147 25.5202 10.2979C25.5959 10.481 25.6349 10.6773 25.6349 10.8755C25.6348 11.0737 25.5957 11.2699 25.5198 11.453C25.4439 11.6361 25.3327 11.8024 25.1925 11.9425L25.0063 12.1275C25.3249 12.4848 25.4947 12.9505 25.481 13.4291C25.4673 13.9076 25.2711 14.3628 24.9325 14.7013L12.0675 27.5675C11.9871 27.6475 11.8864 27.7041 11.7763 27.7313L6.77626 28.9813C6.67163 29.0073 6.56203 29.0059 6.45813 28.977C6.35423 28.9482 6.25955 28.893 6.1833 28.8167C6.10706 28.7405 6.05183 28.6458 6.023 28.5419C5.99417 28.438 5.99271 28.3284 6.01876 28.2238L7.26876 23.2238C7.29611 23.1141 7.35271 23.0138 7.43251 22.9338L19.485 10.8813C19.3645 10.7964 19.2178 10.7569 19.071 10.7697C18.9241 10.7825 18.7865 10.8468 18.6825 10.9513L14.5675 15.0675C14.5094 15.1256 14.4404 15.1717 14.3645 15.2032C14.2886 15.2346 14.2072 15.2508 14.125 15.2508C14.0428 15.2508 13.9615 15.2346 13.8855 15.2032C13.8096 15.1717 13.7406 15.1256 13.6825 15.0675C13.6244 15.0094 13.5783 14.9404 13.5469 14.8645C13.5154 14.7886 13.4992 14.7072 13.4992 14.625C13.4992 14.5428 13.5154 14.4615 13.5469 14.3855C13.5783 14.3096 13.6244 14.2406 13.6825 14.1825L17.8 10.0675C18.1387 9.72878 18.5943 9.53254 19.0731 9.51906C19.5519 9.50558 20.0178 9.67588 20.375 9.99501C20.7185 9.68806 21.1629 9.51828 21.6235 9.51805C22.0842 9.51782 22.5288 9.68716 22.8725 9.99376Z" fill="white"/>
<path d="M47.456 27.192C46.368 27.192 45.376 26.904 44.48 26.328C43.6 25.752 42.904 24.992 42.392 24.048C41.88 23.088 41.624 22.072 41.624 21C41.624 19.864 41.888 18.824 42.416 17.88C42.96 16.92 43.68 16.168 44.576 15.624C45.488 15.08 46.456 14.808 47.48 14.808C48.408 14.808 49.192 15 49.832 15.384C50.488 15.768 51.016 16.384 51.416 17.232V11.184L56.48 10.44V27H51.416V24.768C50.664 26.384 49.344 27.192 47.456 27.192ZM49.04 23.4C49.712 23.4 50.272 23.16 50.72 22.68C51.184 22.2 51.416 21.64 51.416 21V20.904C51.416 20.28 51.176 19.744 50.696 19.296C50.216 18.832 49.664 18.6 49.04 18.6C48.368 18.6 47.8 18.84 47.336 19.32C46.888 19.784 46.664 20.344 46.664 21C46.664 21.672 46.896 22.24 47.36 22.704C47.84 23.168 48.4 23.4 49.04 23.4ZM65.6304 27.192C64.3024 27.192 63.1184 26.928 62.0784 26.4C61.0544 25.856 60.2544 25.12 59.6784 24.192C59.1024 23.248 58.8144 22.184 58.8144 21C58.8144 19.784 59.1104 18.704 59.7024 17.76C60.2944 16.816 61.0944 16.088 62.1024 15.576C63.1104 15.064 64.2304 14.808 65.4624 14.808C66.6464 14.808 67.6544 15.072 68.4864 15.6C69.3344 16.112 69.9664 16.816 70.3824 17.712C70.7984 18.592 71.0064 19.584 71.0064 20.688C71.0064 20.976 70.9904 21.184 70.9584 21.312L63.7584 22.248C63.9504 22.808 64.2624 23.216 64.6944 23.472C65.1264 23.712 65.6944 23.832 66.3984 23.832C67.4864 23.832 68.6624 23.552 69.9264 22.992L70.5264 26.208C69.0384 26.864 67.4064 27.192 65.6304 27.192ZM67.2864 19.224C67.0304 18.216 66.4224 17.712 65.4624 17.712C64.8864 17.712 64.4304 17.928 64.0944 18.36C63.7584 18.792 63.5824 19.352 63.5664 20.04L67.2864 19.224ZM79.4463 27.192C78.1183 27.192 76.9343 26.928 75.8943 26.4C74.8703 25.856 74.0703 25.12 73.4943 24.192C72.9183 23.248 72.6303 22.184 72.6303 21C72.6303 19.784 72.9263 18.704 73.5183 17.76C74.1103 16.816 74.9103 16.088 75.9183 15.576C76.9263 15.064 78.0463 14.808 79.2783 14.808C80.4623 14.808 81.4703 15.072 82.3023 15.6C83.1503 16.112 83.7823 16.816 84.1983 17.712C84.6143 18.592 84.8223 19.584 84.8223 20.688C84.8223 20.976 84.8063 21.184 84.7743 21.312L77.5743 22.248C77.7663 22.808 78.0783 23.216 78.5103 23.472C78.9423 23.712 79.5103 23.832 80.2143 23.832C81.3023 23.832 82.4783 23.552 83.7423 22.992L84.3423 26.208C82.8543 26.864 81.2223 27.192 79.4463 27.192ZM81.1023 19.224C80.8463 18.216 80.2383 17.712 79.2783 17.712C78.7023 17.712 78.2463 17.928 77.9103 18.36C77.5743 18.792 77.3983 19.352 77.3823 20.04L81.1023 19.224ZM87.0462 15.144H92.1102V17.232C92.8782 15.616 94.1822 14.808 96.0222 14.808C97.0942 14.808 98.0782 15.08 98.9742 15.624C99.8862 16.152 100.598 16.888 101.11 17.832C101.638 18.776 101.902 19.832 101.902 21C101.902 22.168 101.63 23.224 101.086 24.168C100.558 25.112 99.8382 25.856 98.9262 26.4C98.0302 26.928 97.0702 27.192 96.0462 27.192C94.2222 27.192 92.9102 26.384 92.1102 24.768V30.12L87.0462 31.08V15.144ZM94.5102 23.4C95.1662 23.4 95.7262 23.16 96.1902 22.68C96.6542 22.2 96.8862 21.64 96.8862 21C96.8862 20.328 96.6462 19.76 96.1662 19.296C95.7022 18.832 95.1502 18.6 94.5102 18.6C93.8542 18.6 93.2942 18.832 92.8302 19.296C92.3662 19.744 92.1342 20.28 92.1342 20.904V21C92.1342 21.672 92.3662 22.24 92.8302 22.704C93.3102 23.168 93.8702 23.4 94.5102 23.4ZM104.214 15.144H109.038V17.592C109.966 15.736 111.438 14.808 113.454 14.808C114.99 14.808 116.19 15.36 117.054 16.464C117.934 17.552 118.374 19.064 118.374 21V27H113.334V20.496C113.334 19.808 113.182 19.28 112.878 18.912C112.59 18.544 112.182 18.36 111.654 18.36C111.27 18.36 110.894 18.488 110.526 18.744C110.158 18.984 109.854 19.336 109.614 19.8C109.39 20.264 109.278 20.792 109.278 21.384V27H104.214V15.144ZM127.482 27.192C126.138 27.192 124.938 26.928 123.882 26.4C122.842 25.872 122.026 25.144 121.434 24.216C120.858 23.272 120.57 22.192 120.57 20.976C120.57 19.76 120.866 18.688 121.458 17.76C122.05 16.816 122.866 16.088 123.906 15.576C124.962 15.064 126.162 14.808 127.506 14.808C128.866 14.808 130.066 15.072 131.106 15.6C132.162 16.112 132.978 16.832 133.554 17.76C134.13 18.688 134.418 19.76 134.418 20.976C134.418 22.208 134.122 23.296 133.53 24.24C132.954 25.168 132.138 25.896 131.082 26.424C130.042 26.936 128.842 27.192 127.482 27.192ZM127.53 23.592C128.186 23.592 128.722 23.352 129.138 22.872C129.57 22.376 129.786 21.744 129.786 20.976C129.786 20.208 129.57 19.584 129.138 19.104C128.722 18.608 128.186 18.36 127.53 18.36C126.874 18.36 126.33 18.608 125.898 19.104C125.482 19.584 125.274 20.208 125.274 20.976C125.274 21.744 125.482 22.376 125.898 22.872C126.33 23.352 126.874 23.592 127.53 23.592ZM141.859 27.192C140.451 27.192 139.355 26.792 138.571 25.992C137.787 25.176 137.395 24.056 137.395 22.632V17.952H135.859V14.976H137.755L139.987 10.44H142.411V14.976H145.195V17.952H142.411V22.032C142.411 22.432 142.539 22.744 142.795 22.968C143.051 23.192 143.411 23.304 143.875 23.304C144.307 23.304 144.699 23.208 145.051 23.016L145.243 26.376C144.843 26.616 144.323 26.816 143.683 26.976C143.059 27.12 142.451 27.192 141.859 27.192ZM153.495 27.192C152.167 27.192 150.983 26.928 149.943 26.4C148.919 25.856 148.119 25.12 147.543 24.192C146.967 23.248 146.679 22.184 146.679 21C146.679 19.784 146.975 18.704 147.567 17.76C148.159 16.816 148.959 16.088 149.967 15.576C150.975 15.064 152.095 14.808 153.327 14.808C154.511 14.808 155.519 15.072 156.351 15.6C157.199 16.112 157.831 16.816 158.247 17.712C158.663 18.592 158.871 19.584 158.871 20.688C158.871 20.976 158.855 21.184 158.823 21.312L151.623 22.248C151.815 22.808 152.127 23.216 152.559 23.472C152.991 23.712 153.559 23.832 154.263 23.832C155.351 23.832 156.527 23.552 157.791 22.992L158.391 26.208C156.903 26.864 155.271 27.192 153.495 27.192ZM155.151 19.224C154.895 18.216 154.287 17.712 153.327 17.712C152.751 17.712 152.295 17.928 151.959 18.36C151.623 18.792 151.447 19.352 151.431 20.04L155.151 19.224ZM165.247 27.192C163.567 27.192 162.095 26.944 160.831 26.448L161.383 23.592C162.535 24.008 163.655 24.216 164.743 24.216C165.543 24.216 165.943 23.992 165.943 23.544C165.943 23.32 165.823 23.136 165.583 22.992C165.359 22.848 164.927 22.72 164.287 22.608C162.959 22.352 161.999 21.92 161.407 21.312C160.831 20.704 160.543 19.84 160.543 18.72C160.607 17.456 161.111 16.488 162.055 15.816C162.999 15.144 164.287 14.808 165.919 14.808C166.751 14.808 167.463 14.864 168.055 14.976C168.663 15.072 169.215 15.24 169.711 15.48L169.207 18.336C168.743 18.16 168.231 18.024 167.671 17.928C167.127 17.832 166.671 17.784 166.303 17.784C165.759 17.784 165.383 17.84 165.175 17.952C164.967 18.064 164.863 18.216 164.863 18.408C164.863 18.76 165.263 19.008 166.063 19.152C167.519 19.408 168.607 19.856 169.327 20.496C170.047 21.136 170.407 22.008 170.407 23.112C170.407 24.376 169.959 25.376 169.063 26.112C168.183 26.832 166.911 27.192 165.247 27.192Z" fill="black"/>
</svg>
