<svg width="171" height="35" viewBox="0 0 171 35" fill="none" xmlns="http://www.w3.org/2000/svg">
<rect y="3" width="32" height="32" fill="black"/>
<path d="M22.8725 9.99376L23.0588 9.80751C23.1989 9.66741 23.3654 9.55629 23.5485 9.4805C23.7316 9.40471 23.9279 9.36573 24.1261 9.36578C24.3243 9.36584 24.5205 9.40494 24.7036 9.48084C24.8867 9.55674 25.053 9.66795 25.1931 9.80814C25.3332 9.94833 25.4444 10.1147 25.5202 10.2979C25.5959 10.481 25.6349 10.6773 25.6349 10.8755C25.6348 11.0737 25.5957 11.2699 25.5198 11.453C25.4439 11.6361 25.3327 11.8024 25.1925 11.9425L25.0063 12.1275C25.3249 12.4848 25.4947 12.9505 25.481 13.4291C25.4673 13.9076 25.2711 14.3628 24.9325 14.7013L12.0675 27.5675C11.9871 27.6475 11.8864 27.7041 11.7763 27.7313L6.77626 28.9813C6.67163 29.0073 6.56203 29.0059 6.45813 28.977C6.35423 28.9482 6.25955 28.893 6.1833 28.8167C6.10706 28.7405 6.05183 28.6458 6.023 28.5419C5.99417 28.438 5.99271 28.3284 6.01876 28.2238L7.26876 23.2238C7.29611 23.1141 7.35271 23.0138 7.43251 22.9338L19.485 10.8813C19.3645 10.7964 19.2178 10.7569 19.071 10.7697C18.9241 10.7825 18.7865 10.8468 18.6825 10.9513L14.5675 15.0675C14.5094 15.1256 14.4404 15.1717 14.3645 15.2032C14.2886 15.2346 14.2072 15.2508 14.125 15.2508C14.0428 15.2508 13.9615 15.2346 13.8855 15.2032C13.8096 15.1717 13.7406 15.1256 13.6825 15.0675C13.6244 15.0094 13.5783 14.9404 13.5469 14.8645C13.5154 14.7886 13.4992 14.7072 13.4992 14.625C13.4992 14.5428 13.5154 14.4615 13.5469 14.3855C13.5783 14.3096 13.6244 14.2406 13.6825 14.1825L17.8 10.0675C18.1387 9.72878 18.5943 9.53254 19.0731 9.51906C19.5519 9.50558 20.0178 9.67588 20.375 9.99501C20.7185 9.68806 21.1629 9.51828 21.6235 9.51805C22.0842 9.51782 22.5288 9.68716 22.8725 9.99376Z" fill="white"/>
<path d="M51.248 27.192C49.408 27.192 48.104 26.384 47.336 24.768V27H42.248V11.184L47.336 10.44V17.232C47.736 16.384 48.256 15.768 48.896 15.384C49.536 15 50.312 14.808 51.224 14.808C52.296 14.808 53.28 15.08 54.176 15.624C55.088 16.152 55.8 16.888 56.312 17.832C56.84 18.776 57.104 19.832 57.104 21C57.104 22.152 56.832 23.2 56.288 24.144C55.76 25.088 55.04 25.832 54.128 26.376C53.232 26.92 52.272 27.192 51.248 27.192ZM49.712 23.4C50.368 23.4 50.928 23.16 51.392 22.68C51.856 22.2 52.088 21.64 52.088 21C52.088 20.328 51.848 19.76 51.368 19.296C50.904 18.832 50.352 18.6 49.712 18.6C49.056 18.6 48.496 18.832 48.032 19.296C47.568 19.744 47.336 20.28 47.336 20.904V21C47.336 21.672 47.568 22.24 48.032 22.704C48.512 23.168 49.072 23.4 49.712 23.4ZM63.6384 27.192C62.2944 27.192 61.2464 26.76 60.4944 25.896C59.7424 25.032 59.3664 23.856 59.3664 22.368V14.976H64.4544V22.152C64.4544 22.52 64.5504 22.808 64.7424 23.016C64.9504 23.208 65.2144 23.304 65.5344 23.304C65.8544 23.304 66.1824 23.208 66.5184 23.016L66.7824 26.352C66.4304 26.624 65.9664 26.832 65.3904 26.976C64.8304 27.12 64.2464 27.192 63.6384 27.192ZM61.9104 13.176C61.1584 13.176 60.5184 12.944 59.9904 12.48C59.4784 12 59.2224 11.416 59.2224 10.728C59.2224 10.04 59.4944 9.464 60.0384 9C60.5824 8.536 61.2064 8.304 61.9104 8.304C62.6464 8.304 63.2784 8.544 63.8064 9.024C64.3504 9.504 64.6224 10.072 64.6224 10.728C64.6224 11.432 64.3504 12.016 63.8064 12.48C63.2624 12.944 62.6304 13.176 61.9104 13.176ZM75.452 32.496C74.572 32.496 73.732 32.408 72.932 32.232L73.316 28.68C73.94 28.776 74.516 28.824 75.044 28.824C76.036 28.824 76.788 28.528 77.3 27.936C77.812 27.36 78.116 26.384 78.212 25.008C77.268 26.336 75.828 27 73.892 27C72.836 27 71.86 26.728 70.964 26.184C70.084 25.64 69.38 24.904 68.852 23.976C68.34 23.048 68.084 22.032 68.084 20.928C68.084 19.808 68.34 18.784 68.852 17.856C69.364 16.912 70.06 16.168 70.94 15.624C71.836 15.08 72.812 14.808 73.868 14.808C74.844 14.808 75.692 15.064 76.412 15.576C77.148 16.072 77.628 16.744 77.852 17.592V14.808H82.916V23.952C82.916 26.752 82.276 28.872 80.996 30.312C79.732 31.768 77.884 32.496 75.452 32.496ZM75.452 23.4C76.092 23.4 76.644 23.176 77.108 22.728C77.572 22.264 77.82 21.72 77.852 21.096V20.904C77.82 20.296 77.564 19.76 77.084 19.296C76.62 18.832 76.076 18.6 75.452 18.6C74.796 18.6 74.236 18.84 73.772 19.32C73.308 19.784 73.076 20.344 73.076 21C73.076 21.656 73.308 22.224 73.772 22.704C74.236 23.168 74.796 23.4 75.452 23.4ZM92.2115 32.496C91.3315 32.496 90.4915 32.408 89.6915 32.232L90.0755 28.68C90.6995 28.776 91.2755 28.824 91.8035 28.824C92.7475 28.824 93.4675 28.536 93.9635 27.96C94.4595 27.4 94.7155 26.336 94.7315 24.768C93.8995 26.368 92.5635 27.168 90.7235 27.168C89.1715 27.168 87.9555 26.624 87.0755 25.536C86.2115 24.432 85.7795 22.912 85.7795 20.976V14.976H90.8195V21.72C90.8195 22.264 90.9715 22.72 91.2755 23.088C91.5795 23.44 91.9955 23.616 92.5235 23.616C93.0675 23.616 93.5075 23.384 93.8435 22.92C94.1955 22.456 94.3715 21.848 94.3715 21.096V14.976H99.4355V23.952C99.4355 26.736 98.8115 28.856 97.5635 30.312C96.3155 31.768 94.5315 32.496 92.2115 32.496ZM107.643 27.192C106.603 27.192 105.627 26.92 104.715 26.376C103.819 25.816 103.099 25.064 102.555 24.12C102.011 23.16 101.739 22.096 101.739 20.928C101.739 19.776 102.011 18.736 102.555 17.808C103.099 16.864 103.827 16.128 104.739 15.6C105.651 15.072 106.619 14.808 107.643 14.808C108.475 14.808 109.243 15.04 109.947 15.504C110.667 15.968 111.211 16.664 111.579 17.592V14.808H116.619V27H111.579V24.768C110.779 26.384 109.467 27.192 107.643 27.192ZM109.203 23.4C109.843 23.4 110.387 23.176 110.835 22.728C111.299 22.264 111.547 21.72 111.579 21.096V20.904C111.547 20.264 111.291 19.72 110.811 19.272C110.347 18.824 109.811 18.6 109.203 18.6C108.531 18.6 107.955 18.84 107.475 19.32C107.011 19.784 106.779 20.344 106.779 21C106.779 21.672 107.019 22.24 107.499 22.704C107.979 23.168 108.547 23.4 109.203 23.4ZM119.53 15.144H124.594V17.592C124.962 16.648 125.458 15.952 126.082 15.504C126.722 15.04 127.466 14.808 128.314 14.808L129.01 18.72C127.49 18.72 126.37 18.888 125.65 19.224C124.946 19.544 124.594 20.056 124.594 20.76V27H119.53V15.144ZM130.721 15.144H135.545V17.592C136.473 15.736 137.945 14.808 139.961 14.808C141.497 14.808 142.697 15.36 143.561 16.464C144.441 17.552 144.881 19.064 144.881 21V27H139.841V20.496C139.841 19.808 139.689 19.28 139.385 18.912C139.097 18.544 138.689 18.36 138.161 18.36C137.777 18.36 137.401 18.488 137.033 18.744C136.665 18.984 136.361 19.336 136.121 19.8C135.897 20.264 135.785 20.792 135.785 21.384V27H130.721V15.144ZM151.829 27.192C150.149 27.192 148.677 26.944 147.413 26.448L147.965 23.592C149.117 24.008 150.237 24.216 151.325 24.216C152.125 24.216 152.525 23.992 152.525 23.544C152.525 23.32 152.405 23.136 152.165 22.992C151.941 22.848 151.509 22.72 150.869 22.608C149.541 22.352 148.581 21.92 147.989 21.312C147.413 20.704 147.125 19.84 147.125 18.72C147.189 17.456 147.693 16.488 148.637 15.816C149.581 15.144 150.869 14.808 152.501 14.808C153.333 14.808 154.045 14.864 154.637 14.976C155.245 15.072 155.797 15.24 156.293 15.48L155.789 18.336C155.325 18.16 154.813 18.024 154.253 17.928C153.709 17.832 153.253 17.784 152.885 17.784C152.341 17.784 151.965 17.84 151.757 17.952C151.549 18.064 151.445 18.216 151.445 18.408C151.445 18.76 151.845 19.008 152.645 19.152C154.101 19.408 155.189 19.856 155.909 20.496C156.629 21.136 156.989 22.008 156.989 23.112C156.989 24.376 156.541 25.376 155.645 26.112C154.765 26.832 153.493 27.192 151.829 27.192Z" fill="black"/>
</svg>
