<svg width="143" height="35" viewBox="0 0 143 35" fill="none" xmlns="http://www.w3.org/2000/svg">
<rect y="3" width="32" height="32" rx="10" fill="black"/>
<path d="M22.8725 9.99376L23.0588 9.80751C23.199 9.66741 23.3654 9.55629 23.5485 9.4805C23.7316 9.40471 23.9279 9.36573 24.1261 9.36578C24.3243 9.36584 24.5205 9.40494 24.7036 9.48084C24.8867 9.55674 25.053 9.66795 25.1931 9.80814C25.3332 9.94833 25.4444 10.1147 25.5202 10.2979C25.5959 10.481 25.6349 10.6773 25.6349 10.8755C25.6348 11.0737 25.5957 11.2699 25.5198 11.453C25.4439 11.6361 25.3327 11.8024 25.1925 11.9425L25.0063 12.1275C25.3249 12.4848 25.4947 12.9505 25.481 13.4291C25.4673 13.9076 25.2711 14.3628 24.9325 14.7013L12.0675 27.5675C11.9871 27.6475 11.8864 27.7041 11.7763 27.7313L6.77626 28.9813C6.67163 29.0073 6.56203 29.0059 6.45813 28.977C6.35423 28.9482 6.25955 28.893 6.1833 28.8167C6.10706 28.7405 6.05183 28.6458 6.023 28.5419C5.99417 28.438 5.99271 28.3284 6.01876 28.2238L7.26876 23.2238C7.29611 23.1141 7.35271 23.0138 7.43251 22.9338L19.485 10.8813C19.3645 10.7964 19.2178 10.7569 19.071 10.7697C18.9241 10.7825 18.7865 10.8468 18.6825 10.9513L14.5675 15.0675C14.5094 15.1256 14.4404 15.1717 14.3645 15.2032C14.2886 15.2346 14.2072 15.2508 14.125 15.2508C14.0428 15.2508 13.9615 15.2346 13.8855 15.2032C13.8096 15.1717 13.7406 15.1256 13.6825 15.0675C13.6244 15.0094 13.5783 14.9404 13.5469 14.8645C13.5154 14.7886 13.4992 14.7072 13.4992 14.625C13.4992 14.5428 13.5154 14.4615 13.5469 14.3855C13.5783 14.3096 13.6244 14.2406 13.6825 14.1825L17.8 10.0675C18.1387 9.72878 18.5943 9.53254 19.0731 9.51906C19.5519 9.50558 20.0178 9.67588 20.375 9.99501C20.7185 9.68806 21.1629 9.51828 21.6235 9.51805C22.0842 9.51782 22.5288 9.68716 22.8725 9.99376V9.99376Z" fill="white"/>
<path d="M46.192 27.24C45.248 27.24 44.432 27.056 43.744 26.688C43.056 26.304 42.512 25.752 42.112 25.032V27H38.152V9.48H42.712V16.248C43.08 15.56 43.6 15.04 44.272 14.688C44.944 14.32 45.736 14.136 46.648 14.136C47.416 14.136 48.128 14.304 48.784 14.64C49.44 14.96 50.008 15.416 50.488 16.008C50.984 16.6 51.368 17.304 51.64 18.12C51.912 18.92 52.048 19.792 52.048 20.736C52.048 21.664 51.896 22.528 51.592 23.328C51.304 24.112 50.896 24.8 50.368 25.392C49.856 25.984 49.24 26.44 48.52 26.76C47.816 27.08 47.04 27.24 46.192 27.24ZM44.872 23.4C45.24 23.4 45.576 23.336 45.88 23.208C46.184 23.08 46.448 22.904 46.672 22.68C46.896 22.44 47.064 22.16 47.176 21.84C47.304 21.52 47.368 21.16 47.368 20.76C47.368 20.248 47.264 19.784 47.056 19.368C46.864 18.936 46.592 18.6 46.24 18.36C45.904 18.104 45.512 17.976 45.064 17.976C44.744 17.976 44.432 18.056 44.128 18.216C43.824 18.376 43.544 18.6 43.288 18.888C43.048 19.16 42.856 19.48 42.712 19.848V22.104C42.856 22.312 43.008 22.504 43.168 22.68C43.344 22.84 43.52 22.976 43.696 23.088C43.872 23.184 44.056 23.264 44.248 23.328C44.456 23.376 44.664 23.4 44.872 23.4ZM54.1711 27V14.376H58.7311V27H54.1711ZM54.1711 13.32V9.48H58.7311V13.32H54.1711ZM66.3662 27C65.5502 27 64.7982 26.84 64.1102 26.52C63.4382 26.2 62.8622 25.752 62.3822 25.176C61.9022 24.6 61.5262 23.928 61.2542 23.16C60.9982 22.392 60.8702 21.56 60.8702 20.664C60.8702 19.72 61.0142 18.856 61.3022 18.072C61.5902 17.272 61.9902 16.576 62.5022 15.984C63.0302 15.392 63.6542 14.936 64.3742 14.616C65.0942 14.296 65.8862 14.136 66.7502 14.136C67.6462 14.136 68.4382 14.32 69.1262 14.688C69.8302 15.04 70.3822 15.56 70.7822 16.248V14.376H74.7422V25.848C74.7422 27.16 74.4222 28.304 73.7822 29.28C73.1423 30.256 72.2463 31.008 71.0942 31.536C69.9422 32.08 68.5982 32.352 67.0622 32.352C65.7342 32.352 64.5662 32.144 63.5582 31.728C62.5662 31.312 61.6862 30.712 60.9182 29.928L63.3182 27.432C63.7822 27.864 64.3342 28.224 64.9742 28.512C65.6302 28.816 66.3262 28.968 67.0622 28.968C67.6222 28.968 68.1342 28.864 68.5982 28.656C69.0782 28.448 69.4622 28.112 69.7502 27.648C70.0382 27.2 70.1822 26.6 70.1822 25.848V25.032C69.8302 25.688 69.3022 26.184 68.5982 26.52C67.9102 26.84 67.1662 27 66.3662 27ZM67.9982 23.4C68.2222 23.4 68.4302 23.376 68.6222 23.328C68.8302 23.264 69.0222 23.184 69.1982 23.088C69.3742 22.976 69.5422 22.84 69.7022 22.68C69.8782 22.504 70.0382 22.312 70.1822 22.104V19.848C70.0382 19.464 69.8382 19.136 69.5822 18.864C69.3262 18.576 69.0462 18.36 68.7422 18.216C68.4382 18.056 68.1262 17.976 67.8062 17.976C67.4862 17.976 67.1822 18.048 66.8942 18.192C66.6222 18.336 66.3822 18.544 66.1742 18.816C65.9662 19.072 65.8062 19.368 65.6942 19.704C65.5822 20.04 65.5262 20.4 65.5262 20.784C65.5262 21.168 65.5822 21.52 65.6942 21.84C65.8222 22.16 65.9982 22.44 66.2222 22.68C66.4462 22.904 66.7102 23.08 67.0142 23.208C67.3182 23.336 67.6462 23.4 67.9982 23.4ZM77.4413 28.272C77.8093 28.4 78.1453 28.496 78.4493 28.56C78.7693 28.64 79.0573 28.68 79.3133 28.68C79.6493 28.68 79.9293 28.616 80.1533 28.488C80.3773 28.376 80.5533 28.192 80.6813 27.936C80.8093 27.68 80.8893 27.368 80.9213 27L76.3373 14.376H81.0173L83.4173 22.32L85.3613 14.376H89.6093L85.3373 28.512C85.0973 29.328 84.7053 30.04 84.1613 30.648C83.6173 31.272 82.9693 31.752 82.2173 32.088C81.4653 32.44 80.6573 32.616 79.7933 32.616C79.3933 32.616 78.9933 32.576 78.5933 32.496C78.2093 32.432 77.8253 32.32 77.4413 32.16V28.272ZM90.3526 23.184C90.3526 22.336 90.5846 21.592 91.0486 20.952C91.5126 20.296 92.1526 19.784 92.9686 19.416C93.8006 19.048 94.7446 18.864 95.8006 18.864C96.2966 18.864 96.7606 18.904 97.1926 18.984C97.6406 19.064 98.0246 19.184 98.3446 19.344V18.96C98.3446 18.368 98.1686 17.928 97.8166 17.64C97.4806 17.352 96.9286 17.208 96.1606 17.208C95.4566 17.208 94.7926 17.328 94.1686 17.568C93.5606 17.792 92.9206 18.128 92.2486 18.576L90.9286 15.744C91.7766 15.2 92.6646 14.8 93.5926 14.544C94.5366 14.272 95.5446 14.136 96.6166 14.136C98.6166 14.136 100.161 14.592 101.249 15.504C102.353 16.4 102.905 17.736 102.905 19.512V21.96C102.905 22.392 102.969 22.696 103.097 22.872C103.225 23.032 103.449 23.128 103.769 23.16V27C103.401 27.08 103.049 27.136 102.713 27.168C102.393 27.216 102.105 27.24 101.849 27.24C101.033 27.24 100.409 27.096 99.9766 26.808C99.5606 26.504 99.2886 26.064 99.1606 25.488L99.0646 25.032C98.5046 25.752 97.8566 26.304 97.1206 26.688C96.3846 27.056 95.6006 27.24 94.7686 27.24C93.9366 27.24 93.1846 27.064 92.5126 26.712C91.8406 26.36 91.3126 25.88 90.9286 25.272C90.5446 24.648 90.3526 23.952 90.3526 23.184ZM97.7446 23.496C97.9206 23.368 98.0646 23.232 98.1766 23.088C98.2886 22.928 98.3446 22.768 98.3446 22.608V21.672C98.0886 21.576 97.7926 21.496 97.4566 21.432C97.1366 21.368 96.8486 21.336 96.5926 21.336C96.0486 21.336 95.5846 21.472 95.2006 21.744C94.8326 22.016 94.6486 22.36 94.6486 22.776C94.6486 23 94.7126 23.208 94.8406 23.4C94.9686 23.576 95.1446 23.72 95.3686 23.832C95.5926 23.928 95.8486 23.976 96.1366 23.976C96.4086 23.976 96.6886 23.936 96.9766 23.856C97.2806 23.76 97.5366 23.64 97.7446 23.496ZM114.464 18.264C113.584 18.264 112.784 18.36 112.064 18.552C111.344 18.744 110.808 19.064 110.456 19.512V27H105.896V14.376H110.072V16.776C110.52 15.928 111.08 15.28 111.752 14.832C112.424 14.368 113.136 14.136 113.888 14.136C114.064 14.136 114.184 14.136 114.248 14.136C114.328 14.136 114.4 14.144 114.464 14.16V18.264ZM129.056 27H124.496V19.896C124.496 19.272 124.352 18.824 124.064 18.552C123.792 18.264 123.472 18.12 123.104 18.12C122.848 18.12 122.576 18.2 122.288 18.36C122 18.504 121.736 18.712 121.496 18.984C121.256 19.256 121.064 19.568 120.92 19.92V27H116.36V14.376H120.464V16.248C120.768 15.784 121.152 15.4 121.616 15.096C122.08 14.776 122.616 14.536 123.224 14.376C123.832 14.216 124.496 14.136 125.216 14.136C126.08 14.136 126.768 14.288 127.28 14.592C127.792 14.896 128.176 15.288 128.432 15.768C128.688 16.248 128.856 16.752 128.936 17.28C129.016 17.792 129.056 18.264 129.056 18.696V27ZM136.81 27.24C135.706 27.24 134.618 27.064 133.546 26.712C132.49 26.344 131.594 25.816 130.858 25.128L132.418 22.32C133.202 22.832 133.954 23.232 134.674 23.52C135.41 23.808 136.074 23.952 136.666 23.952C137.002 23.952 137.25 23.912 137.41 23.832C137.57 23.736 137.65 23.584 137.65 23.376C137.65 23.232 137.594 23.112 137.482 23.016C137.37 22.92 137.186 22.824 136.93 22.728C136.69 22.632 136.378 22.528 135.994 22.416C135.002 22.064 134.17 21.736 133.498 21.432C132.842 21.128 132.346 20.76 132.01 20.328C131.69 19.88 131.53 19.288 131.53 18.552C131.53 17.688 131.746 16.928 132.178 16.272C132.61 15.6 133.226 15.072 134.026 14.688C134.842 14.304 135.818 14.112 136.954 14.112C137.802 14.112 138.65 14.248 139.498 14.52C140.362 14.776 141.194 15.248 141.994 15.936L140.266 18.72C139.466 18.224 138.786 17.872 138.226 17.664C137.682 17.456 137.194 17.352 136.762 17.352C136.554 17.352 136.37 17.376 136.21 17.424C136.066 17.472 135.954 17.544 135.874 17.64C135.794 17.736 135.754 17.864 135.754 18.024C135.754 18.184 135.81 18.32 135.922 18.432C136.034 18.528 136.21 18.624 136.45 18.72C136.69 18.8 136.994 18.896 137.362 19.008C138.45 19.328 139.338 19.656 140.026 19.992C140.714 20.312 141.218 20.704 141.538 21.168C141.874 21.632 142.042 22.24 142.042 22.992C142.042 24.32 141.57 25.36 140.626 26.112C139.698 26.864 138.426 27.24 136.81 27.24Z" fill="black"/>
</svg>
