<svg width="12" height="12" viewBox="0 0 12 12" fill="none" xmlns="http://www.w3.org/2000/svg">
<path d="M7.5525 2.67525C7.93875 1.40025 8.3625 9.53674e-07 6 9.53674e-07C4.81331 9.53674e-07 3.65328 0.351894 2.66658 1.01118C1.67989 1.67047 0.910851 2.60754 0.456725 3.7039C0.00259969 4.80026 -0.11622 6.00666 0.115291 7.17054C0.346802 8.33443 0.918247 9.40353 1.75736 10.2426C2.59648 11.0818 3.66558 11.6532 4.82946 11.8847C5.99335 12.1162 7.19975 11.9974 8.2961 11.5433C9.39246 11.0892 10.3295 10.3201 10.9888 9.33342C11.6481 8.34673 12 7.18669 12 6C12 4.503 10.872 4.6305 9.69 4.76325C8.86425 4.85625 8.01225 4.95225 7.5 4.5C7.10475 4.15125 7.32225 3.435 7.5525 2.67525ZM3.75 6C3.75 6.14774 3.7209 6.29403 3.66437 6.43052C3.60783 6.56701 3.52496 6.69103 3.4205 6.7955C3.31603 6.89996 3.19201 6.98283 3.05552 7.03937C2.91903 7.0959 2.77274 7.125 2.625 7.125C2.47727 7.125 2.33098 7.0959 2.19448 7.03937C2.05799 6.98283 1.93397 6.89996 1.82951 6.7955C1.72504 6.69103 1.64217 6.56701 1.58564 6.43052C1.5291 6.29403 1.5 6.14774 1.5 6C1.5 5.70163 1.61853 5.41548 1.82951 5.20451C2.04049 4.99353 2.32663 4.875 2.625 4.875C2.92337 4.875 3.20952 4.99353 3.4205 5.20451C3.63148 5.41548 3.75 5.70163 3.75 6ZM6 2.625C6 2.92337 5.88148 3.20952 5.6705 3.4205C5.45952 3.63147 5.17337 3.75 4.875 3.75C4.57663 3.75 4.29049 3.63147 4.07951 3.4205C3.86853 3.20952 3.75 2.92337 3.75 2.625C3.75 2.32663 3.86853 2.04048 4.07951 1.82951C4.29049 1.61853 4.57663 1.5 4.875 1.5C5.17337 1.5 5.45952 1.61853 5.6705 1.82951C5.88148 2.04048 6 2.32663 6 2.625ZM4.875 8.25C5.02274 8.25 5.16903 8.2791 5.30552 8.33564C5.44201 8.39217 5.56603 8.47504 5.6705 8.57951C5.77496 8.68397 5.85783 8.80799 5.91437 8.94448C5.9709 9.08097 6 9.22726 6 9.375C6 9.52274 5.9709 9.66903 5.91437 9.80552C5.85783 9.94201 5.77496 10.066 5.6705 10.1705C5.56603 10.275 5.44201 10.3578 5.30552 10.4144C5.16903 10.4709 5.02274 10.5 4.875 10.5C4.57663 10.5 4.29049 10.3815 4.07951 10.1705C3.86853 9.95952 3.75 9.67337 3.75 9.375C3.75 9.07663 3.86853 8.79048 4.07951 8.57951C4.29049 8.36853 4.57663 8.25 4.875 8.25ZM9.75 7.875C9.75 8.17337 9.63148 8.45952 9.4205 8.6705C9.20952 8.88147 8.92337 9 8.625 9C8.32663 9 8.04049 8.88147 7.82951 8.6705C7.61853 8.45952 7.5 8.17337 7.5 7.875C7.5 7.57663 7.61853 7.29048 7.82951 7.07951C8.04049 6.86853 8.32663 6.75 8.625 6.75C8.92337 6.75 9.20952 6.86853 9.4205 7.07951C9.63148 7.29048 9.75 7.57663 9.75 7.875Z" fill="white"/>
</svg>
