<svg width="12" height="9" viewBox="0 0 12 9" fill="none" xmlns="http://www.w3.org/2000/svg">
<path d="M1.125 8.875L10.875 8.875C11.0824 8.875 11.25 8.70742 11.25 8.5L11.25 1C11.25 0.792578 11.0824 0.625 10.875 0.625L1.125 0.625001C0.917577 0.625001 0.749999 0.792579 0.749999 1L0.75 8.5C0.75 8.70742 0.917578 8.875 1.125 8.875ZM8.03906 7.1875C7.62539 7.1875 7.28906 6.85117 7.28906 6.4375C7.28906 6.02383 7.62539 5.6875 8.03906 5.6875C8.45273 5.6875 8.78906 6.02383 8.78906 6.4375C8.78906 6.85117 8.45273 7.1875 8.03906 7.1875ZM2.0168 2.06524C2.03387 2.0509 2.05544 2.04301 2.07773 2.04297L9.92344 2.04297C9.975 2.04297 10.0172 2.08516 10.0172 2.13672C10.0172 2.15898 10.009 2.18008 9.99492 2.19766L7.99922 4.56484C7.96641 4.60469 7.90664 4.60938 7.8668 4.57656C7.86328 4.57305 7.85859 4.56953 7.85508 4.56484L6.69023 3.18203L4.8375 5.3793C4.80469 5.41914 4.74492 5.42383 4.70508 5.39102C4.70156 5.3875 4.69687 5.38399 4.69336 5.3793L2.00273 2.19648C1.97227 2.15781 1.97695 2.09805 2.0168 2.06524Z" fill="white"/>
</svg>
