<svg width="11" height="11" viewBox="0 0 11 11" fill="none" xmlns="http://www.w3.org/2000/svg">
<path d="M10.8352 5.12612L5.18895 0.0602527C5.14561 0.0216291 5.09031 0 5.03202 0H3.70938C3.59879 0 3.54797 0.142135 3.63166 0.216292L8.86545 4.91292H0.119561C0.0538024 4.91292 0 4.96854 0 5.03652V5.96348C0 6.03146 0.0538024 6.08708 0.119561 6.08708H8.86395L3.63017 10.7837C3.54648 10.8594 3.59729 11 3.70788 11H5.07536C5.10376 11 5.13215 10.9892 5.15308 10.9691L10.8352 5.87388C10.887 5.82737 10.9284 5.76993 10.9569 5.70543C10.9853 5.64093 11 5.57088 11 5.5C11 5.42912 10.9853 5.35907 10.9569 5.29457C10.9284 5.23007 10.887 5.17263 10.8352 5.12612Z" fill="#9747FF"/>
</svg>
