<svg width="14" height="10" viewBox="0 0 14 10" fill="none" xmlns="http://www.w3.org/2000/svg">
<path d="M13.3824 3.39275C12.9312 3.46339 12.4657 3.46805 11.9956 3.40059C12.5409 3.24532 13.011 2.89697 13.3183 2.42054C12.8066 2.56449 12.2739 2.6196 11.7435 2.5835C11.5016 2.1309 11.117 1.77082 10.6495 1.55918C10.182 1.34754 9.65766 1.29617 9.15795 1.41305C8.65825 1.52993 8.21111 1.80852 7.88595 2.20556C7.5608 2.60261 7.37583 3.09589 7.35975 3.60884C6.47719 3.32421 5.66434 2.85719 4.97395 2.23809C4.28355 1.61899 3.73106 0.861632 3.35231 0.0151824C3.06983 0.296663 2.85522 0.653269 2.74496 1.06475C2.64549 1.43513 2.63898 1.82433 2.726 2.19782C2.81302 2.57131 2.99088 2.91755 3.24381 3.20582C2.8896 3.09873 2.56609 2.90858 2.30021 2.6512L2.29244 2.68018C2.1532 3.19971 2.19798 3.75142 2.4192 4.24169C2.64043 4.73196 3.02446 5.1306 3.50613 5.36995C3.15068 5.37085 2.79968 5.29095 2.47963 5.13631C2.50352 5.62185 2.67865 6.08776 2.9805 6.46882C3.28234 6.84987 3.6958 7.127 4.16297 7.26141C3.19836 7.67349 2.12318 7.74913 1.11037 7.47615C0.930883 7.42811 0.754365 7.36958 0.581731 7.30086C1.433 8.23769 2.53617 8.90942 3.75923 9.23568C7.89822 10.3447 11.0795 7.52294 11.8761 4.54982C11.902 4.45322 11.9257 4.35502 11.9472 4.25726C12.4726 4.05691 12.9582 3.76457 13.381 3.39394L13.3824 3.39275Z" fill="white"/>
</svg>
